<svg width="125" height="125" viewBox="0 0 125 125" fill="none" xmlns="http://www.w3.org/2000/svg">
<g clip-path="url(#clip0)">
<path d="M68.8333 40.6406H80.0801C81.4285 40.6406 82.5215 39.5476 82.5215 38.1992V26.9336C82.5215 25.5852 81.4285 24.4922 80.0801 24.4922H68.8333C67.4849 24.4922 66.3918 25.5852 66.3918 26.9336V38.1992C66.3918 39.5476 67.4849 40.6406 68.8333 40.6406ZM71.2747 29.3752H77.6387V35.758H71.2747V29.3752Z" fill="black"/>
<path d="M46.6826 40.6406H57.9294C59.2778 40.6406 60.3708 39.5476 60.3708 38.1992V26.9336C60.3708 25.5852 59.2778 24.4922 57.9294 24.4922H46.6826C45.3342 24.4922 44.2412 25.5852 44.2412 26.9336V38.1992C44.2412 39.5476 45.3342 40.6406 46.6826 40.6406ZM49.124 29.3752H55.488V35.758H49.124V29.3752Z" fill="black"/>
<path d="M68.8333 65.4401H80.0801C81.4285 65.4401 82.5215 64.347 82.5215 62.9987V51.7333C82.5215 50.3849 81.4285 49.2919 80.0801 49.2919H68.8333C67.4849 49.2919 66.3918 50.3849 66.3918 51.7333V62.9987C66.3918 64.3468 67.4849 65.4401 68.8333 65.4401ZM71.2747 54.1744H77.6387V60.557H71.2747V54.1744Z" fill="black"/>
<path d="M46.6826 65.4401H57.9294C59.2778 65.4401 60.3708 64.347 60.3708 62.9987V51.7333C60.3708 50.3849 59.2778 49.2919 57.9294 49.2919H46.6826C45.3342 49.2919 44.2412 50.3849 44.2412 51.7333V62.9987C44.2412 64.3468 45.3342 65.4401 46.6826 65.4401ZM49.124 54.1744H55.488V60.557H49.124V54.1744Z" fill="black"/>
<path d="M68.8333 90.2395H80.0801C81.4285 90.2395 82.5215 89.1465 82.5215 87.7981V76.5325C82.5215 75.1841 81.4285 74.0911 80.0801 74.0911H68.8333C67.4849 74.0911 66.3918 75.1841 66.3918 76.5325V87.7981C66.3918 89.1465 67.4849 90.2395 68.8333 90.2395ZM71.2747 78.9741H77.6387V85.3569H71.2747V78.9741Z" fill="black"/>
<path d="M57.9294 90.2395C59.2778 90.2395 60.3708 89.1465 60.3708 87.7981V76.5325C60.3708 75.1841 59.2778 74.0911 57.9294 74.0911H46.6826C45.3342 74.0911 44.2412 75.1841 44.2412 76.5325V87.7981C44.2412 89.1465 45.3342 90.2395 46.6826 90.2395H57.9294ZM49.124 78.9741H55.488V85.3569H49.124V78.9741Z" fill="black"/>
<path d="M113.269 120.117H110.999V46.374C110.999 45.0256 109.906 43.9326 108.558 43.9326H92.6514V13.6614C92.6514 12.313 91.5583 11.22 90.21 11.22H85.0083V2.44141C85.0083 1.09302 83.9153 0 82.5669 0H44.1958C42.8474 0 41.7544 1.09302 41.7544 2.44141V11.22H36.553C35.2046 11.22 34.1116 12.313 34.1116 13.6614V60.6489H20.7161C19.3677 60.6489 18.2747 61.7419 18.2747 63.0903V120.117H11.731C10.3826 120.117 9.28955 121.21 9.28955 122.559C9.28955 123.907 10.3826 125 11.731 125H113.269C114.617 125 115.71 123.907 115.71 122.559C115.71 121.21 114.617 120.117 113.269 120.117ZM46.6372 4.88281H80.1252V11.22H46.6372V4.88281ZM23.1575 65.5317H34.1116V120.117H23.1575V65.5317ZM38.9944 16.1028H87.7686V120.117H75.6152V104.009C75.6152 102.661 74.5222 101.568 73.1738 101.568H53.5889C52.2405 101.568 51.1475 102.661 51.1475 104.009V120.117H38.9944V16.1028ZM56.0305 120.117V106.451H70.7327V120.117H56.0305ZM92.6514 120.117V48.8154H106.116V120.117H92.6514Z" fill="black"/>
</g>
<defs>
<clipPath id="clip0">
<rect width="125" height="125" fill="white"/>
</clipPath>
</defs>
</svg>
