<svg width="125" height="125" viewBox="0 0 125 125" fill="none" xmlns="http://www.w3.org/2000/svg">
<path d="M87.5376 78.7189C107.57 78.7189 123.867 61.0624 123.867 39.3596C123.867 17.6566 107.57 0 87.5376 0C67.5056 0 51.2085 17.6566 51.2085 39.3596C51.2085 61.0624 67.5056 78.7189 87.5376 78.7189ZM87.5376 5.29013C104.877 5.29013 118.984 20.5736 118.984 39.3596C118.984 58.1454 104.877 73.4288 87.5376 73.4288C70.1982 73.4288 56.0913 58.1454 56.0913 39.3596C56.0913 20.5736 70.198 5.29013 87.5376 5.29013Z" fill="black"/>
<path d="M87.5377 67.0805C101.646 67.0805 113.125 54.6448 113.125 39.3592C113.125 24.0737 101.646 11.638 87.5377 11.638C73.4291 11.638 61.9508 24.074 61.9508 39.3595C61.9508 54.645 73.4291 67.0805 87.5377 67.0805ZM87.5377 16.9284C98.954 16.9284 108.242 26.9909 108.242 39.3595C108.242 51.7281 98.954 61.7907 87.5377 61.7907C76.1215 61.7907 66.8336 51.7281 66.8336 39.3595C66.8336 26.9909 76.1215 16.9284 87.5377 16.9284Z" fill="black"/>
<path d="M83.4374 45.9645C82.5915 44.8269 81.0548 44.6478 80.0046 45.5641C78.9545 46.4806 78.7892 48.1456 79.6349 49.2833C80.9809 51.0933 82.9103 52.1217 84.8322 52.6145C84.9345 53.9732 85.9848 55.0413 87.2653 55.0413C88.4852 55.0413 89.4962 54.0719 89.6776 52.8052C93.1161 52.1402 95.5289 49.6599 95.9247 46.2832C96.3846 42.3609 94.0363 38.5993 90.214 37.1355C90.0399 37.0689 89.871 37.0038 89.7067 36.9401V31.8441C89.91 31.9845 90.0617 32.138 90.1578 32.2861C90.9318 33.4819 92.4545 33.7716 93.5587 32.932C94.6625 32.093 94.9293 30.4433 94.1547 29.2474C93.2667 27.876 91.716 26.7124 89.7052 26.2331C89.6618 24.8135 88.5861 23.6772 87.2653 23.6772C85.9169 23.6772 84.8239 24.8614 84.8239 26.3223V26.4109C84.674 26.4534 84.5231 26.4992 84.3712 26.5489C81.8083 27.3856 79.8742 30.0748 79.6679 33.0891C79.4628 36.0847 80.9262 38.6829 83.5822 40.0398C83.8717 40.188 84.2948 40.3816 84.8236 40.6098V47.058C84.2638 46.785 83.7775 46.4218 83.4374 45.9645ZM91.0807 45.6167C90.9899 46.3914 90.5057 46.9831 89.7067 47.3339V42.7391C90.7792 43.5554 91.1869 44.7121 91.0807 45.6167ZM84.5377 33.4803C84.5609 33.1391 84.6654 32.8011 84.8241 32.5059V34.5743C84.6032 34.2641 84.5087 33.9012 84.5377 33.4803Z" fill="black"/>
<path d="M124.99 89.9683C124.862 86.7574 123.487 83.9965 121.12 82.1944C117.22 79.2243 111.955 79.7401 108.601 83.4204C108.494 83.5384 108.397 83.6669 108.312 83.8047L102.956 92.4501C101.456 88.6156 97.9722 85.9218 93.9246 85.9218L55.3914 85.8938H55.3897C54.8052 85.8938 54.2405 86.1208 53.7976 86.5336L44.1443 95.5313H37.0996V93.2066C37.0996 91.7457 36.0064 90.5615 34.6582 90.5615H23.9087V90.1997C23.9087 88.7388 22.8154 87.5546 21.4673 87.5546H2.44141C1.09302 87.5546 0 88.7388 0 90.1997V121.22C0 122.681 1.09302 123.865 2.44141 123.865H21.4673C22.8154 123.865 23.9087 122.681 23.9087 121.22V120.859H34.658C36.0061 120.859 37.0994 119.674 37.0994 118.214V115.771H45.1944L52.5073 124.17C52.969 124.7 53.6116 125 54.2832 125C54.2947 125 54.3062 125 54.3176 125L104.736 124.233C105.523 124.222 106.256 123.8 106.705 123.1L122.725 98.1775C122.735 98.1619 122.745 98.146 122.754 98.1304C124.305 95.603 125.099 92.7043 124.99 89.9683ZM19.0259 118.575H4.88281V92.8448H19.0259V118.575ZM32.2166 115.569H23.9087V95.8517H32.2166V115.569ZM118.702 95.1785L103.415 118.963L55.3228 119.694L48.0239 111.311C47.5625 110.781 46.9202 110.481 46.2481 110.481H37.0996V100.821H45.0501C45.6345 100.821 46.1992 100.595 46.6421 100.182L56.2947 91.1847L93.9229 91.2122C96.6443 91.2122 98.8584 93.6552 98.8584 96.6581C98.8584 99.6608 96.6446 102.104 93.9229 102.104C93.9165 102.104 93.9102 102.104 93.9038 102.104H72.8492C72.1792 102.104 71.5386 102.402 71.0774 102.929L65.9412 108.798C65.0135 109.859 65.0547 111.533 66.0332 112.538C66.5054 113.023 67.1094 113.263 67.7124 113.263C68.3592 113.263 69.0047 112.987 69.4846 112.438L73.8987 107.394L98.2754 107.395H98.2762C99.0896 107.395 99.8499 106.956 100.303 106.224L112.225 86.9809C113.901 85.2891 116.428 85.0871 118.313 86.5228C120.857 88.4598 120.435 92.3382 118.702 95.1785Z" fill="black"/>
</svg>
