<svg width="734" height="150" viewBox="0 0 734 150" fill="none" xmlns="http://www.w3.org/2000/svg">
<path d="M641.75 139.5L664.25 144L692 114L713.75 75H686H672.125L658.25 77.25L644.562 75H630.875H603.5L619.25 114L641.75 139.5Z" fill="#EB2727"/>
<path d="M606.5 75H633.125H646.438L638.75 56.25L646.438 45.75L658.25 38.25L673.25 43.5L677.75 56.25L672.5 75H685.25H710.75V44.25L696.5 15.75L686 8.25L672.125 6L658.25 8.25L644.563 6L631.25 8.25L624.5 15L606.5 43.5V75Z" fill="white"/>
<path d="M658.995 0C626.491 0 600.047 26.4441 600.047 58.9488C600.047 62.994 600.457 67.0324 601.266 70.9605C601.282 71.1639 601.313 71.3684 601.359 71.574C608.1 101.896 625.664 128.779 650.768 147.239C653.166 149.045 656.031 150 659.054 150C661.449 150 663.815 149.373 665.895 148.186C666.036 148.106 666.173 148.017 666.304 147.922L668.125 146.588C692.559 128.266 709.734 101.87 716.484 72.2622C716.529 72.0657 716.56 71.867 716.576 71.6671C717.49 67.5415 717.954 63.2652 717.954 58.9488C717.953 26.4441 691.505 0 658.995 0ZM707.844 70.2712C707.798 70.4711 707.766 70.6722 707.749 70.8745C701.374 98.2158 685.44 122.577 662.859 139.507L661.335 140.624C659.663 141.485 657.593 141.334 656.037 140.161C632.762 123.046 616.462 98.2192 610.094 70.2046C610.078 70.0277 610.05 69.8507 610.012 69.6727C609.254 66.1755 608.87 62.5668 608.87 58.9489C608.87 31.3099 631.356 8.82375 658.995 8.82375C686.64 8.82375 709.13 31.3099 709.13 58.9489C709.13 62.8044 708.698 66.6143 707.844 70.2712Z" fill="black"/>
<path d="M658.997 33.7167C645.086 33.7167 633.769 45.0356 633.769 58.9476C633.769 72.8562 645.086 84.1717 658.997 84.1717C672.911 84.1717 684.231 72.8563 684.231 58.9476C684.231 45.0357 672.911 33.7167 658.997 33.7167ZM658.997 75.3481C649.951 75.3481 642.593 67.9906 642.593 58.9476C642.593 49.9 649.951 42.5403 658.997 42.5403C668.045 42.5403 675.407 49.9002 675.407 58.9476C675.407 67.9907 668.045 75.3481 658.997 75.3481Z" fill="black"/>
<path d="M57.75 139.5L80.25 144L108 114L129.75 75H102H88.125L74.25 75.75L60.5625 75H46.875H19.5L35.25 114L57.75 139.5Z" fill="#FFF72B"/>
<path d="M22.5 75H49.125H62.4375L54.75 56.25L62.4375 45.75L74.25 38.25L89.25 43.5L93.75 56.25L88.5 75H101.25H126.75V44.25L112.5 15.75L102 8.25L88.125 6L74.25 8.25L60.5625 6L47.25 8.25L40.5 15L22.5 43.5V75Z" fill="#3F3CCD"/>
<path d="M74.9954 0C42.4907 0 16.0466 26.4441 16.0466 58.9488C16.0466 62.994 16.4567 67.0324 17.2656 70.9605C17.2817 71.1639 17.3128 71.3684 17.3586 71.574C24.1003 101.896 41.6635 128.779 66.7681 147.239C69.1658 149.045 72.0312 150 75.0539 150C77.4494 150 79.815 149.373 81.8945 148.186C82.0358 148.106 82.1725 148.017 82.3036 147.922L84.1245 146.588C108.559 128.266 125.734 101.87 132.484 72.2622C132.529 72.0657 132.56 71.867 132.576 71.6671C133.49 67.5415 133.954 63.2652 133.954 58.9488C133.953 26.4441 107.505 0 74.9954 0ZM123.844 70.2712C123.798 70.4711 123.766 70.6722 123.749 70.8744C117.374 98.2158 101.44 122.577 78.8592 139.507L77.3346 140.624C75.663 141.485 73.5927 141.334 72.0371 140.161C48.7615 123.046 32.4621 98.2192 26.0937 70.2046C26.0776 70.0277 26.0501 69.8507 26.0122 69.6727C25.2539 66.1755 24.8702 62.5668 24.8702 58.9489C24.8702 31.3099 47.3563 8.82375 74.9954 8.82375C102.64 8.82375 125.13 31.3099 125.13 58.9489C125.13 62.8044 124.698 66.6143 123.844 70.2712Z" fill="black"/>
<path d="M74.9965 33.7167C61.0857 33.7167 49.7691 45.0356 49.7691 58.9476C49.7691 72.8562 61.0857 84.1717 74.9965 84.1717C88.9108 84.1717 100.231 72.8563 100.231 58.9476C100.231 45.0357 88.9108 33.7167 74.9965 33.7167ZM74.9965 75.3481C65.9513 75.3481 58.5925 67.9906 58.5925 58.9476C58.5925 49.9 65.9513 42.5403 74.9965 42.5403C84.0452 42.5403 91.4074 49.9002 91.4074 58.9476C91.4074 67.9907 84.0453 75.3481 74.9965 75.3481Z" fill="black"/>
<path d="M73.5 144.322L660 144.322" stroke="black" stroke-width="7" stroke-linecap="round" stroke-dasharray="14 14"/>
<path d="M397.07 117.69H395.604V98.9107C395.604 93.9 391.681 89.7671 386.859 89.698L364.845 89.385V69.5015C364.845 64.8125 360.902 60.998 356.056 60.998H315.479V52.4937C315.479 50.9284 314.167 49.6591 312.549 49.6591C310.931 49.6591 309.619 50.9284 309.619 52.4937V60.9978H269.042C260.965 60.9978 254.394 67.3555 254.394 75.1701V117.69H252.93C251.312 117.69 250 118.959 250 120.524V124.775C250 128.683 253.286 131.863 257.324 131.863H267.827C268.391 135.096 269.897 138.022 272.068 140.365H261.416C259.798 140.365 258.486 141.634 258.486 143.2C258.486 144.765 259.798 146.034 261.416 146.034H285.1C285.118 146.034 285.137 146.036 285.156 146.036C293.85 146.036 301.085 139.896 302.485 131.863H350.444C351.844 139.896 359.08 146.036 367.773 146.036H388.583C390.201 146.036 391.513 144.766 391.513 143.201C391.513 141.636 390.201 140.367 388.583 140.367H380.861C383.031 138.023 384.539 135.097 385.103 131.863H392.675C396.714 131.863 400 128.683 400 124.775V120.524C400 118.959 398.688 117.69 397.07 117.69ZM267.826 126.194H257.323C256.53 126.194 255.859 125.544 255.859 124.776V123.359H268.586C268.251 124.271 267.996 125.218 267.826 126.194ZM296.874 129.035C296.87 135.278 291.625 140.356 285.175 140.366C285.169 140.366 285.162 140.365 285.156 140.365H285.1C278.664 140.336 273.438 135.262 273.438 129.027C273.438 122.776 278.694 117.69 285.156 117.69C291.615 117.69 296.87 122.773 296.874 129.021C296.874 129.024 296.874 129.026 296.874 129.028C296.874 129.031 296.874 129.033 296.874 129.035ZM367.773 140.367C361.311 140.367 356.055 135.28 356.055 129.027C356.055 122.776 361.311 117.69 367.773 117.69C374.235 117.69 379.492 122.776 379.492 129.027C379.492 135.28 374.235 140.367 367.773 140.367ZM367.773 112.021C362.579 112.021 357.906 114.213 354.685 117.69H335.548V83.3802C335.548 81.815 334.236 80.5456 332.618 80.5456C331.001 80.5456 329.689 81.815 329.689 83.3802V120.524C329.689 122.089 331.001 123.359 332.618 123.359H351.203C350.869 124.271 350.614 125.218 350.444 126.194H302.485C301.086 118.161 293.85 112.021 285.156 112.021C279.962 112.021 275.289 114.213 272.068 117.69H260.253V112.021H262.191C263.809 112.021 265.12 110.752 265.12 109.186C265.12 107.621 263.809 106.352 262.191 106.352H260.253V75.1704C260.253 70.4817 264.196 66.6672 269.042 66.6672H356.056C357.672 66.6672 358.986 67.9385 358.986 69.5015V72.3358H344.337C342.719 72.3358 341.407 73.6049 341.407 75.1704V92.1782C341.407 93.7438 342.719 95.0128 344.337 95.0128H361.892L386.772 95.3666C388.412 95.3901 389.745 96.9797 389.745 98.9107V106.352H387.808C386.19 106.352 384.878 107.621 384.878 109.186C384.878 110.752 386.19 112.021 387.808 112.021H389.745V117.69H380.862C377.641 114.213 372.967 112.021 367.773 112.021ZM358.986 78.0047V89.3436H347.266V78.0047H358.986ZM394.141 124.776C394.141 125.544 393.469 126.194 392.675 126.194H385.103C384.933 125.218 384.678 124.271 384.344 123.359H394.141V124.776Z" fill="black"/>
<path d="M367.774 120.526C362.928 120.526 358.986 124.339 358.986 129.027C358.986 133.715 362.928 137.529 367.774 137.529C372.619 137.529 376.561 133.715 376.561 129.027C376.561 124.339 372.619 120.526 367.774 120.526ZM367.774 131.86C366.159 131.86 364.845 130.589 364.845 129.027C364.845 127.466 366.159 126.195 367.774 126.195C369.389 126.195 370.702 127.466 370.702 129.027C370.702 130.589 369.389 131.86 367.774 131.86Z" fill="black"/>
<path d="M285.157 120.526C280.311 120.526 276.369 124.339 276.369 129.027C276.369 133.715 280.311 137.529 285.157 137.529C290.002 137.529 293.944 133.715 293.944 129.027C293.944 124.339 290.002 120.526 285.157 120.526ZM285.157 131.86C283.542 131.86 282.228 130.589 282.228 129.027C282.228 127.466 283.542 126.195 285.157 126.195C286.771 126.195 288.084 127.466 288.084 129.027C288.084 130.589 286.771 131.86 285.157 131.86Z" fill="black"/>
<path d="M252.999 140.365H252.93C251.312 140.365 250 141.635 250 143.2C250 144.765 251.312 146.034 252.93 146.034H252.999C254.616 146.034 255.929 144.765 255.929 143.2C255.929 141.635 254.617 140.365 252.999 140.365Z" fill="black"/>
<path d="M397.071 140.367H397.001C395.383 140.367 394.072 141.636 394.072 143.201C394.072 144.766 395.383 146.036 397.001 146.036H397.071C398.688 146.036 400 144.766 400 143.201C400 141.636 398.688 140.367 397.071 140.367Z" fill="black"/>
<path d="M320.899 72.3357H294.97H269.042C267.424 72.3357 266.112 73.6047 266.112 75.1703V92.1784C266.112 93.7439 267.424 95.013 269.042 95.013H294.97H320.899C322.517 95.013 323.828 93.7439 323.828 92.1784V75.1703C323.828 73.6047 322.517 72.3357 320.899 72.3357ZM292.041 89.3438H271.971V78.0052H292.041V89.3438ZM317.969 89.3438H297.9V78.0049H317.969V89.3438Z" fill="black"/>
<path d="M332.617 72.3358C330.999 72.3358 329.688 73.6049 329.688 75.1704V75.2373C329.688 76.8026 330.999 78.0719 332.617 78.0719C334.235 78.0719 335.547 76.8026 335.547 75.2373V75.1704C335.547 73.6049 334.235 72.3358 332.617 72.3358Z" fill="black"/>
</svg>
