<svg width="125" height="125" viewBox="0 0 125 125" fill="none" xmlns="http://www.w3.org/2000/svg">
<path d="M119.143 0H105.03C101.801 0 99.1731 2.85011 99.1731 6.35302V103.171C99.1731 103.191 99.1831 103.405 99.1836 103.412C99.2187 103.825 99.3411 104.21 99.5305 104.546L109.986 123.701C110.425 124.506 111.224 125 112.086 125C112.949 125 113.748 124.506 114.187 123.701L124.642 104.546C124.896 104.129 124.99 103.398 124.991 103.39C124.992 103.381 125 103.191 125 103.171C125 103.169 125 6.35302 125 6.35302C125 2.85011 122.373 0 119.143 0ZM104.056 100.517V21.9809H109.645V100.517H104.056ZM114.528 21.9809H120.117V100.517H114.528V21.9809ZM104.056 6.35302C104.056 5.77066 104.493 5.29661 105.03 5.29661H119.143C119.68 5.29661 120.117 5.77066 120.117 6.35302V16.6843H104.056V6.35302ZM112.086 117.154L105.897 105.814H118.276L112.086 117.154Z" fill="black"/>
<path d="M27.2444 32.0655C18.5721 32.0655 11.5167 39.7188 11.5167 49.1261C11.5167 58.5334 18.5721 66.1868 27.2444 66.1868C35.9168 66.1868 42.9722 58.5334 42.9722 49.1261C42.9722 39.7188 35.9168 32.0655 27.2444 32.0655ZM27.2444 60.8902C21.2645 60.8902 16.3995 55.6129 16.3995 49.1261C16.3995 42.6394 21.2645 37.3621 27.2444 37.3621C33.2244 37.3621 38.0894 42.6394 38.0894 49.1261C38.0894 55.6129 33.2242 60.8902 27.2444 60.8902Z" fill="black"/>
<path d="M28.4126 45.0166L26.4289 47.1683L25.758 46.7563C24.5845 46.0351 23.095 46.4832 22.4307 47.7555C21.7663 49.0282 22.1787 50.6442 23.352 51.3648L25.6389 52.7697C26.0154 53.0012 26.4297 53.1138 26.8411 53.1138C27.4731 53.1138 28.0981 52.8479 28.5681 52.3381L31.865 48.7618C32.8184 47.7276 32.8186 46.0507 31.8652 45.0163C30.9116 43.983 29.366 43.983 28.4126 45.0166Z" fill="black"/>
<path d="M79.4749 50.4226H49.5476C48.1992 50.4226 47.1062 51.6083 47.1062 53.071C47.1062 54.5334 48.1992 55.7193 49.5476 55.7193H79.4749C80.8232 55.7193 81.9163 54.5334 81.9163 53.071C81.9163 51.6086 80.8232 50.4226 79.4749 50.4226Z" fill="black"/>
<path d="M49.5476 39.8623C48.1992 39.8623 47.1062 41.0482 47.1062 42.5106C47.1062 43.9733 48.1992 45.1589 49.5476 45.1589H69.0027C70.3511 45.1589 71.4441 43.9733 71.4441 42.5106C71.4441 41.0482 70.3511 39.8623 69.0027 39.8623H49.5476Z" fill="black"/>
<path d="M27.2444 76.4991C18.5721 76.4991 11.5167 84.1525 11.5167 93.5598C11.5167 102.967 18.5721 110.621 27.2444 110.621C35.9168 110.621 42.9722 102.967 42.9722 93.5598C42.9722 84.1525 35.9168 76.4991 27.2444 76.4991ZM27.2444 105.324C21.2645 105.324 16.3995 100.047 16.3995 93.5598C16.3995 87.0731 21.2645 81.7958 27.2444 81.7958C33.2244 81.7958 38.0894 87.0731 38.0894 93.5598C38.0894 100.047 33.2242 105.324 27.2444 105.324Z" fill="black"/>
<path d="M28.4124 89.4506L26.4287 91.6026L25.7578 91.1906C24.5842 90.4694 23.0947 90.9173 22.4304 92.1898C21.7661 93.4625 22.1785 95.0785 23.3518 95.7991L25.6387 97.204C26.0151 97.4355 26.4295 97.548 26.8408 97.548C27.4729 97.548 28.0979 97.2821 28.5681 96.7723L31.865 93.1958C32.8184 92.1617 32.8184 90.4848 31.8648 89.4504C30.9116 88.4165 29.366 88.4165 28.4124 89.4506Z" fill="black"/>
<path d="M79.4749 94.8567H49.5476C48.1992 94.8567 47.1062 96.0426 47.1062 97.505C47.1062 98.9674 48.1992 100.153 49.5476 100.153H79.4749C80.8232 100.153 81.9163 98.9674 81.9163 97.505C81.9163 96.0423 80.8232 94.8567 79.4749 94.8567Z" fill="black"/>
<path d="M49.5476 89.5926H69.0027C70.3511 89.5926 71.4441 88.4067 71.4441 86.9443C71.4441 85.482 70.3511 84.2961 69.0027 84.2961H49.5476C48.1992 84.2961 47.1062 85.482 47.1062 86.9443C47.1062 88.4067 48.1992 89.5926 49.5476 89.5926Z" fill="black"/>
<path d="M86.9204 0.134613H6.51245C2.92139 0.134613 0 3.30357 0 7.19896V117.805C0 121.701 2.92139 124.87 6.51245 124.87H86.9204C90.5115 124.87 93.4329 121.701 93.4329 117.805V7.19896C93.4329 3.30357 90.5112 0.134613 86.9204 0.134613ZM88.55 117.805C88.55 118.78 87.8191 119.573 86.9204 119.573H6.51245C5.61377 119.573 4.88281 118.78 4.88281 117.805V7.19896C4.88281 6.22412 5.61377 5.43122 6.51245 5.43122H86.9204C87.8191 5.43122 88.55 6.22412 88.55 7.19896V117.805Z" fill="black"/>
<path d="M21.8625 23.477H71.5703C72.9187 23.477 74.0117 22.291 74.0117 20.8286C74.0117 19.3662 72.9187 18.1802 71.5703 18.1802H21.8625C20.5142 18.1802 19.4211 19.3662 19.4211 20.8286C19.4211 22.2913 20.5142 23.477 21.8625 23.477Z" fill="black"/>
</svg>
